<svg width="20" height="22" viewBox="0 0 20 22" fill="none" xmlns="http://www.w3.org/2000/svg">
<path d="M6.87417 12.3842L13.135 16.0325M13.1258 5.9675L6.87417 9.61583M18.25 4.58333C18.25 6.10211 17.0188 7.33333 15.5 7.33333C13.9812 7.33333 12.75 6.10211 12.75 4.58333C12.75 3.06455 13.9812 1.83333 15.5 1.83333C17.0188 1.83333 18.25 3.06455 18.25 4.58333ZM7.25 11C7.25 12.5188 6.01878 13.75 4.5 13.75C2.98122 13.75 1.75 12.5188 1.75 11C1.75 9.48122 2.98122 8.25 4.5 8.25C6.01878 8.25 7.25 9.48122 7.25 11ZM18.25 17.4167C18.25 18.9354 17.0188 20.1667 15.5 20.1667C13.9812 20.1667 12.75 18.9354 12.75 17.4167C12.75 15.8979 13.9812 14.6667 15.5 14.6667C17.0188 14.6667 18.25 15.8979 18.25 17.4167Z" stroke="#2F4550" stroke-width="2" stroke-linecap="round" stroke-linejoin="round"/>
</svg>
